<?xml version="1.0" encoding="UTF-8" standalone="no"?>
<svg width="512px" height="512px" viewBox="0 0 512 512" version="1.1" xmlns="http://www.w3.org/2000/svg" xmlns:xlink="http://www.w3.org/1999/xlink" xmlns:sketch="http://www.bohemiancoding.com/sketch/ns">
    <!-- Generator: Sketch 3.2.2 (9983) - http://www.bohemiancoding.com/sketch -->
    <title></title>
    <desc>Created with Sketch.</desc>
    <defs></defs>
    <g id="Page-1" stroke="none" stroke-width="1" fill="none" fill-rule="evenodd" sketch:type="MSPage">
        <g id="003_home" sketch:type="MSArtboardGroup" fill="#000000">
            <path d="M508.489843,250.625 L417.189843,175.125 L417.189843,63.225 C417.189843,57.525 412.789843,53.025 406.989843,53.025 L367.789843,53.025 C362.089843,53.025 357.589843,57.425 357.589843,63.225 L357.589843,125.125 L280.189843,60.325 C266.889843,49.225 245.289843,49.225 231.889843,60.325 L3.48984342,250.625 C-0.610156581,254.125 -1.21015658,260.825 2.28984342,264.925 L21.9898434,288.425 C23.4898434,290.425 26.0898434,291.625 28.6898434,291.925 C31.4898434,292.325 33.9898434,291.325 36.2898434,289.725 L73.0898434,259.025 L73.0898434,439.325 C73.0898434,450.425 82.2898434,459.625 93.3898434,459.625 L215.289843,459.625 L215.289843,337.625 L296.589843,337.625 L296.589843,459.525 L418.489843,459.525 C429.589843,459.525 438.789843,450.325 438.789843,439.225 L438.789843,258.925 L475.589843,289.625 C477.489843,291.125 479.689843,291.825 482.289843,291.825 L483.189843,291.825 C485.689843,291.525 488.289843,290.325 489.889843,288.325 L509.589843,264.825 C513.189843,260.725 512.489843,254.125 508.489843,250.625 L508.489843,250.625 Z" id="Shape" sketch:type="MSShapeGroup"></path>
        </g>
    </g>
</svg>